# xmcd
# 
# Track frame offsets:
#     150
#     17829
#     36754
#     55030
#     75737
#     86168
#     101999
#     117156
#     137209
#     153640
#     169097
#     187253
#     203909
#     221616
#     235573
# 
# Disc length: 3242
# 
# Revision: 2
# Processed by: cddbd v1.5.2PL0 Copyright (c) Steve Scherf et al.
# Submitted via: BonkEnc v1.0.8
# 
DISCID=d20ca80f
DTITLE=RUBEN RADA - BAILONGO
DYEAR=2008
DGENRE=National Folk
TTITLE0=BRINDO
TTITLE1=BAILANDO EN ONGLÉS BÁSICO
TTITLE2=EL URUGUAY ES UNA TAZA DE ORO
TTITLE3=FIESTA EN EL RÍO
TTITLE4=TE ABRACÉ EN LA NOCHE
TTITLE5=NO ESTÁ ESCRITO
TTITLE6=JOYA Y SPENCER
TTITLE7=EL INCENDIO
TTITLE8=LA ESCUELA DEL CHA CHA CHÁ
TTITLE9=BARRILETES DE AMOR
TTITLE10=DON KING NOQUEÓ A KING KONG
TTITLE11=SANTA PRIMAVERA
TTITLE12=POR FAVOR
TTITLE13=HASTA EL DÍA DE HOY
TTITLE14=TE ABRACÉ EN LA NOCHE (SOLISTA)
EXTD=ÚLTIMO DISCO DE RUBEN RADA EDITADO Y COMERCIALIZADO EN LA RED ABITAB DE PAGOS Y COBRANZAS DEL URUGUAY. NO SE ENCUENTRA A LA VENTA EN DISQUERÍAS
EXTT0=
EXTT1=
EXTT2=
EXTT3=
EXTT4=
EXTT5=
EXTT6=
EXTT7=
EXTT8=
EXTT9=
EXTT10=
EXTT11=
EXTT12=
EXTT13=
EXTT14=
PLAYORDER=
